<?xml version="1.0" encoding="UTF-8"?>
<svg version="1.1" xmlns="http://www.w3.org/2000/svg" width="1500" height="1500">
<path d="M0 0 C1.62693373 -0.00178422 3.2538667 -0.00444533 4.88079774 -0.00790086 C9.3561155 -0.01486133 13.8313446 -0.00936139 18.30665826 -0.00184478 C23.17360919 0.00412728 28.04054889 -0.00150449 32.90749979 -0.0056656 C41.43880144 -0.01135319 49.97007649 -0.00959653 58.50137711 -0.00298023 C71.18717646 0.00683096 83.87295632 0.00520671 96.55875794 0.00126947 C117.89812127 -0.00500867 139.23747355 -0.00183077 160.57683563 0.00686359 C181.70908969 0.01547186 202.84133878 0.0203839 223.97359467 0.02019596 C225.28708763 0.02018832 226.6005806 0.02018067 227.95387638 0.02017279 C233.28538934 0.02013189 238.61690229 0.020069 243.94841525 0.01996698 C258.85173385 0.01968936 273.7550524 0.02007807 288.65837097 0.02095604 C289.33702339 0.02099571 290.01567581 0.02103538 290.71489345 0.02107626 C312.33960304 0.0223842 333.96431107 0.02655552 355.58901978 0.03281403 C356.6411152 0.03311843 356.6411152 0.03311843 357.71446509 0.03342899 C369.10503975 0.03673781 380.49561436 0.04023307 391.88618897 0.04373771 C437.08404179 0.05763276 482.281889 0.06427055 527.47974396 0.06358624 C528.90893406 0.06356585 530.33812417 0.06354563 531.76731428 0.0635256 C534.62228652 0.06348541 537.47725877 0.06344464 540.33223101 0.06340349 C546.73334448 0.06331207 553.13445794 0.06322772 559.53557141 0.0631569 C560.95325098 0.06314113 562.37093055 0.06312469 563.78861012 0.06310757 C601.6320067 0.06266262 639.47540253 0.06712695 677.31879854 0.0734598 C677.97915609 0.07356998 678.63951364 0.07368015 679.31988202 0.07379366 C685.29536696 0.07479079 691.2708519 0.07578917 697.24633683 0.07681825 C715.74723519 0.07998278 734.24813302 0.0814881 752.74903164 0.08192974 C776.57974821 0.0825257 800.41046033 0.08649767 824.241175 0.0963612 C836.85630771 0.10149191 849.4714339 0.10388035 862.08656761 0.10236501 C870.49641955 0.10163414 878.9062651 0.1045075 887.31611499 0.11040882 C892.11846346 0.11367899 896.92079818 0.11532321 901.72314733 0.11264823 C906.08176751 0.11025548 910.44036004 0.11237108 914.79897667 0.11826634 C916.37563751 0.11957905 917.95230082 0.11917451 919.52896063 0.11694973 C921.65189114 0.11419267 923.77472485 0.11746756 925.89764929 0.12238914 C927.66883041 0.12282639 927.66883041 0.12282639 929.47579297 0.12327247 C932.09009552 0.24888897 932.09009552 0.24888897 933.09009552 1.24888897 C934.66899186 1.50685825 936.25388969 1.72803142 937.84009552 1.93638897 C951.59321442 4.14083626 965.5202369 8.25454424 978.09009552 14.24888897 C979.0232962 14.69385723 979.0232962 14.69385723 979.97534943 15.14781475 C995.40388613 22.55749964 1009.35829824 31.16764544 1022.54712677 42.13560772 C1024.26346621 43.56193588 1025.99581025 44.96919229 1027.74243927 46.35826397 C1034.6465777 51.91833552 1034.6465777 51.91833552 1036.09009552 56.24888897 C1037.08009552 56.57888897 1038.07009552 56.90888897 1039.09009552 57.24888897 C1049.59863263 68.3266385 1058.89640588 81.83408311 1066.09009552 95.24888897 C1066.40543243 95.82123272 1066.72076935 96.39357647 1067.04566193 96.98326397 C1076.01475298 113.3559002 1083.03249215 132.54746199 1085.62915802 151.10045147 C1085.74923657 154.1071029 1085.74923657 154.1071029 1087.09009552 155.24888897 C1087.1899312 157.90035626 1087.22370482 160.52582809 1087.21593666 163.17782879 C1087.2173901 164.02286988 1087.21884354 164.86791097 1087.22034103 165.73855937 C1087.22402827 168.60717307 1087.22050209 171.47573453 1087.21707916 174.34434795 C1087.21822991 176.40689878 1087.21981711 178.4694494 1087.22180641 180.53199959 C1087.22600615 186.22860204 1087.22390615 191.92518788 1087.22082019 197.62179041 C1087.21856891 203.75409308 1087.22204433 209.88639278 1087.22480011 216.01869488 C1087.22900159 227.34722423 1087.22862084 238.67574676 1087.22588864 250.00427595 C1087.22337724 260.46812824 1087.22271444 270.93197858 1087.22391129 281.39583111 C1087.22398767 282.08879063 1087.22406406 282.78175016 1087.22414276 283.49570846 C1087.22445407 286.30835956 1087.22477247 289.12101066 1087.22510252 291.93366176 C1087.22816441 318.3411436 1087.22538347 344.74862204 1087.22000562 371.15610336 C1087.2152597 394.63918216 1087.21568431 418.12225553 1087.22046661 441.60533428 C1087.22581637 467.96322144 1087.2279473 494.3211056 1087.22485435 520.67899323 C1087.22453361 523.48664443 1087.22422077 526.29429563 1087.22391129 529.10194683 C1087.22383221 529.79330815 1087.22375313 530.48466946 1087.22367166 531.19698112 C1087.22253217 541.65657582 1087.22386821 552.11616835 1087.22639084 562.57576275 C1087.22924361 574.46377619 1087.22845241 586.35178321 1087.22311009 598.2397964 C1087.22047191 604.31167989 1087.21946999 610.38355233 1087.22275925 616.45543575 C1087.22571982 622.00425739 1087.22413343 627.55305766 1087.21878169 633.10187733 C1087.21765648 635.11867537 1087.21825097 637.13547519 1087.22065748 639.15227211 C1087.22365916 641.87485749 1087.2206194 644.59736782 1087.21593666 647.31994915 C1087.21827783 648.11920901 1087.22061899 648.91846887 1087.2230311 649.74194872 C1087.20424586 655.13473863 1087.20424586 655.13473863 1086.09009552 656.24888897 C1085.83212624 657.82778531 1085.61095307 659.41268314 1085.40259552 660.99888897 C1083.19698222 674.75928236 1079.07141862 688.66632974 1073.09009552 701.24888897 C1072.81471954 701.83911846 1072.53934357 702.42934795 1072.25562286 703.03746319 C1065.71957354 716.96761693 1058.03501271 730.45283868 1048.09009552 742.24888897 C1047.64907501 742.77724346 1047.2080545 743.30559795 1046.75366974 743.84996319 C1029.74486142 764.19207146 1010.17202502 781.1855381 985.94678497 792.37388897 C983.97532132 793.30297848 982.03822202 794.28778078 980.09790802 795.28013897 C976.32034219 797.17691649 972.48839475 798.77753485 968.52759552 800.24888897 C967.84141144 800.50452618 967.15522736 800.76016338 966.44824982 801.02354717 C960.14517615 803.31852726 953.76580894 805.18380869 947.23417 806.72780462 C945.62690383 807.11842596 944.02793814 807.54347032 942.43405016 807.98552315 C933.46861137 810.32379902 924.86844078 810.6693351 915.67238235 810.62082577 C914.03907988 810.62335288 912.40577902 810.62719569 910.77248234 810.63222313 C906.29809316 810.64220895 901.82390657 810.63360951 897.3495288 810.62188891 C892.47667137 810.61245194 887.60383705 810.6204926 882.73097825 810.62628722 C874.19550275 810.63403648 865.66008812 810.6306627 857.12461662 810.61996365 C844.43268729 810.60409855 831.74080032 810.60544477 819.04886407 810.61025593 C797.69764564 810.61784269 776.34645308 810.61133637 754.99523926 810.5966444 C733.85512591 810.58211465 712.7150239 810.5733581 691.5749054 810.57245922 C689.60299886 810.57236758 689.60299886 810.57236758 687.59125584 810.57227409 C682.2551212 810.57204457 676.91898657 810.57185255 671.58285193 810.57172595 C656.66750233 810.57136422 641.7521529 810.5700163 626.83680344 810.56796169 C626.15764783 810.5678687 625.47849223 810.56777571 624.77875615 810.56767991 C591.75509082 810.56306352 558.73143229 810.54690268 525.7077713 810.53013897 C479.77450183 810.50682248 433.84124196 810.49266867 387.90796661 810.48912334 C386.47779878 810.48901096 385.04763094 810.48889831 383.61746311 810.48878542 C378.62155123 810.48839196 373.62563934 810.48800479 368.62972746 810.48761829 C364.36315549 810.48728819 360.09658352 810.48695632 355.83001156 810.48662243 C353.70268906 810.48645697 351.57536656 810.48629483 349.44804407 810.48613281 C304.31957235 810.48265474 259.19110245 810.47116196 214.06263255 810.45832647 C200.83978437 810.45460379 187.61693631 810.45133997 174.39408779 810.44907761 C146.58765309 810.44427545 118.78122415 810.43722345 90.97479346 810.42092994 C79.47106466 810.41426251 67.96734057 810.40913011 56.4636097 810.4084692 C46.93505554 810.40791965 37.40651044 810.40410755 27.87795983 810.39569328 C23.07406382 810.39154821 18.2701812 810.38902284 13.46628341 810.39080849 C9.10630723 810.39239171 4.74635955 810.38946376 0.38638846 810.38275293 C-1.19075332 810.38114441 -2.7678979 810.38125252 -4.34503932 810.3831802 C-6.46861098 810.38553656 -8.59208475 810.38186157 -10.71564889 810.37653947 C-12.48735934 810.37576661 -12.48735934 810.37576661 -14.29486193 810.37497814 C-16.90990448 810.24888897 -16.90990448 810.24888897 -17.90990448 809.24888897 C-21.42507272 808.58885201 -24.94465232 808.00505057 -28.47631073 807.44224834 C-32.55514701 806.7624423 -36.09153637 805.88623556 -39.90990448 804.24888897 C-42.07186395 803.64834467 -44.23906437 803.06649395 -46.40990448 802.49888897 C-53.65566285 800.45347176 -60.17717817 797.583115 -66.90990448 794.24888897 C-68.59213104 793.46191631 -68.59213104 793.46191631 -70.30834198 792.65904522 C-87.36866216 784.51226311 -103.99537374 773.12005162 -116.90990448 759.24888897 C-117.73490448 758.44451397 -118.55990448 757.64013897 -119.40990448 756.81138897 C-122.11450541 754.03917302 -124.64352645 751.15309429 -127.16381073 748.21373272 C-128.89358587 746.21831962 -128.89358587 746.21831962 -130.84349823 744.37388897 C-144.97554834 729.84111911 -155.17905129 709.18141815 -161.90990448 690.24888897 C-162.14789764 689.58051006 -162.38589081 688.91213116 -162.63109589 688.22349834 C-165.47541735 680.06307503 -167.56744169 671.92623709 -168.92259979 663.3873167 C-169.47168012 660.02441484 -169.98048642 658.14301606 -171.90990448 655.24888897 C-172.10146551 652.48910424 -172.1742563 649.83098494 -172.15600014 647.07106018 C-172.15830783 646.22341181 -172.16061551 645.37576343 -172.16299313 644.50242874 C-172.16832411 641.63693909 -172.15928343 638.77167023 -172.15041351 635.90619183 C-172.15128495 633.84120194 -172.15303478 631.77621227 -172.15559185 629.71122378 C-172.16008161 624.01718686 -172.1520394 618.32322463 -172.14203572 612.62919724 C-172.1334269 606.49626831 -172.13631956 600.36334385 -172.13784027 594.23041058 C-172.13889075 583.59817457 -172.13266669 572.96596552 -172.12136459 562.33373737 C-172.10953872 551.18024168 -172.10183436 540.02675574 -172.09965897 528.87325382 C-172.09952149 528.18028665 -172.09938401 527.48731948 -172.09924236 526.7733533 C-172.09856571 523.25425773 -172.09796294 519.73516215 -172.09738861 516.21606656 C-172.09318553 491.2772123 -172.07970452 466.3383708 -172.06078339 441.39952374 C-172.04242065 417.16873016 -172.02825042 392.93794006 -172.01976776 368.70714092 C-172.01950471 367.96050755 -172.01924166 367.21387417 -172.01897063 366.44461554 C-172.01633364 358.94675446 -172.013782 351.44889336 -172.01129291 343.95103223 C-172.00622021 328.67643151 -172.00057771 313.40183103 -171.99459076 298.12723064 C-171.99431618 297.42489805 -171.9940416 296.72256546 -171.9937587 295.99895006 C-171.97535109 249.08225761 -171.94361843 202.16557266 -171.90990448 155.24888897 C-171.24990448 155.24888897 -170.58990448 155.24888897 -169.90990448 155.24888897 C-169.80033417 154.38908428 -169.69076385 153.52927959 -169.57787323 152.64342022 C-168.1248865 141.81099066 -166.4546798 131.15801219 -162.11302948 121.06529522 C-161.19945926 118.92671038 -160.34523243 116.76265944 -159.51927948 114.58873272 C-154.25306989 100.85797001 -147.51974647 86.4940192 -137.90990448 75.24888897 C-137.04172089 74.13320538 -137.04172089 74.13320538 -136.15599823 72.99498272 C-130.74154467 66.08366078 -124.92905167 59.63095533 -118.90990448 53.24888897 C-118.21896698 52.51541241 -117.52802948 51.78193584 -116.81615448 51.02623272 C-105.60298447 39.4683956 -92.18805909 29.68166249 -77.90990448 22.24888897 C-77.24990448 22.24888897 -76.58990448 22.24888897 -75.90990448 22.24888897 C-75.90990448 21.58888897 -75.90990448 20.92888897 -75.90990448 20.24888897 C-73.05589145 19.05971687 -70.20181576 17.87069874 -67.34740448 16.68248272 C-65.13782439 15.76098738 -62.92939034 14.83673658 -60.72240448 13.90904522 C-59.71177948 13.48494366 -58.70115448 13.06084209 -57.65990448 12.62388897 C-56.74724823 12.23974834 -55.83459198 11.85560772 -54.89427948 11.45982647 C-48.1687282 8.73087241 -41.50810608 6.48648373 -34.47240448 4.68638897 C-33.67769745 4.47820538 -32.88299042 4.27002178 -32.06420135 4.05552959 C-29.68239248 3.43730581 -27.30170433 2.82753238 -24.90990448 2.24888897 C-23.69861862 1.91085473 -22.48733275 1.5728205 -21.23934126 1.2245428 C-14.2434388 -0.31020002 -7.12238704 -0.02443937 0 0 Z " fill="#FEFEFE" transform="translate(278.90990447998047,333.7511110305786)"/>
<path d="M0 0 C14.19456042 -0.02333029 28.38911787 -0.0409134 42.5836935 -0.05181217 C49.17404785 -0.05704172 55.76438937 -0.06414067 62.35473633 -0.07543945 C68.70892018 -0.08626578 75.06309165 -0.09227629 81.41728401 -0.09487724 C83.84749611 -0.09673195 86.27770749 -0.10035343 88.70791435 -0.10573006 C92.09882981 -0.11293711 95.48969341 -0.11399108 98.88061523 -0.11352539 C99.89625046 -0.11712067 100.91188568 -0.12071594 101.95829773 -0.12442017 C102.87681519 -0.1230455 103.79533264 -0.12167084 104.74168396 -0.12025452 C105.54456565 -0.12117631 106.34744734 -0.1220981 107.17465878 -0.12304783 C109 0 109 0 110 1 C111.57889634 1.25796928 113.16379417 1.47914245 114.75 1.6875 C128.5031189 3.89194729 142.43014138 8.00565527 155 14 C155.62213379 14.29664551 156.24426758 14.59329102 156.88525391 14.89892578 C172.31379061 22.30861067 186.26820272 30.91875647 199.45703125 41.88671875 C201.17337069 43.31304691 202.90571473 44.72030332 204.65234375 46.109375 C211.55648218 51.66944655 211.55648218 51.66944655 213 56 C213.99 56.33 214.98 56.66 216 57 C226.50853711 68.07774954 235.80631036 81.58519414 243 95 C243.47300537 95.85851562 243.47300537 95.85851562 243.95556641 96.734375 C252.92465746 113.10701123 259.94239663 132.29857302 262.5390625 150.8515625 C262.65914105 153.85821393 262.65914105 153.85821393 264 155 C264.09983568 157.65146729 264.1336093 160.27693912 264.12584114 162.92893982 C264.12729458 163.77398091 264.12874802 164.619022 264.13024551 165.4896704 C264.13393275 168.3582841 264.13040657 171.22684556 264.12698364 174.09545898 C264.12813439 176.15800981 264.12972159 178.22056043 264.13171089 180.28311062 C264.13591063 185.97971307 264.13381063 191.67629891 264.13072467 197.37290144 C264.12847339 203.50520411 264.13194881 209.63750381 264.13470459 215.76980591 C264.13890607 227.09833526 264.13852532 238.42685779 264.13579312 249.75538698 C264.13328172 260.21923927 264.13261892 270.68308961 264.13381577 281.14694214 C264.13393034 282.18638143 264.13393034 282.18638143 264.13404724 283.24681949 C264.13435855 286.05947059 264.13467695 288.87212169 264.135007 291.68477279 C264.13806889 318.09225463 264.13528795 344.49973307 264.1299101 370.90721439 C264.12516418 394.39029319 264.12558879 417.87336656 264.13037109 441.35644531 C264.13572085 467.71433247 264.13785178 494.07221663 264.13475883 520.43010426 C264.13443809 523.23775546 264.13412525 526.04540666 264.13381577 528.85305786 C264.13373669 529.54441918 264.13365761 530.2357805 264.13357614 530.94809216 C264.13243665 541.40768685 264.13377269 551.86727938 264.13629532 562.32687378 C264.13914809 574.21488722 264.13835689 586.10289424 264.13301457 597.99090743 C264.13037639 604.06279092 264.12937447 610.13466337 264.13266373 616.20654678 C264.1356243 621.75536842 264.13403791 627.30416869 264.12868617 632.85298836 C264.12756096 634.8697864 264.12815545 636.88658622 264.13056196 638.90338314 C264.13356364 641.62596852 264.13052388 644.34847885 264.12584114 647.07106018 C264.12818231 647.87032004 264.13052347 648.6695799 264.13293558 649.49305975 C264.11415034 654.88584966 264.11415034 654.88584966 263 656 C262.74203072 657.57889634 262.52085755 659.16379417 262.3125 660.75 C260.1068867 674.51039339 255.9813231 688.41744077 250 701 C249.72462402 701.59022949 249.44924805 702.18045898 249.16552734 702.78857422 C242.62947802 716.71872796 234.94491719 730.20394971 225 742 C224.55897949 742.52835449 224.11795898 743.05670898 223.66357422 743.60107422 C206.6547659 763.94318249 187.0819295 780.93664913 162.85668945 792.125 C160.8852258 793.05408951 158.9481265 794.03889181 157.0078125 795.03125 C153.23024667 796.92802752 149.39829923 798.52864588 145.4375 800 C144.75131592 800.25563721 144.06513184 800.51127441 143.3581543 800.7746582 C137.04606025 803.07292266 130.65476381 804.96304464 124.10583496 806.47860718 C122.61934782 806.84665298 121.14669869 807.27291089 119.68811035 807.7394104 C107.65259997 811.18781793 95.19445857 810.37371206 82.79296875 810.29296875 C80.25564323 810.28736529 77.71831444 810.28309874 75.1809845 810.28010559 C69.21729287 810.26987599 63.25375145 810.24630486 57.29013664 810.21605712 C50.49192309 810.18233665 43.69370082 810.16598311 36.89542425 810.15097082 C22.9301903 810.11974912 8.96510442 810.06709987 -5 810 C-5 809.67 -5 809.34 -5 809 C-4.30028076 808.89453857 -3.60056152 808.78907715 -2.87963867 808.68041992 C0.35212476 808.18943484 3.5822779 807.68852148 6.8125 807.1875 C8.46282227 806.9390332 8.46282227 806.9390332 10.14648438 806.68554688 C17.2606523 805.57330233 24.10260506 804.06428532 31 802 C32.22847656 801.63519531 33.45695312 801.27039062 34.72265625 800.89453125 C71.56571003 788.95824365 102.74882531 766.94294467 126 736 C126.9590625 734.73349609 126.9590625 734.73349609 127.9375 733.44140625 C133.32428738 726.04704302 137.66025906 718.03587623 142 710 C142.87398437 708.39705078 142.87398437 708.39705078 143.765625 706.76171875 C146.92873757 700.73103695 149.20198467 694.76005462 151.04296875 688.203125 C152 685 152 685 153.44921875 681.36328125 C155.48232942 676.03692508 156.51162189 670.51469959 157.625 664.9375 C157.8415625 663.88755859 158.058125 662.83761719 158.28125 661.75585938 C159.9245603 653.69653818 161.1513448 645.94166343 161.12863445 637.69260693 C161.13126401 636.47295161 161.13126401 636.47295161 161.13394669 635.2286568 C161.13859777 632.50464954 161.13614346 629.78069587 161.13371277 627.0566864 C161.13558121 625.08356887 161.13788204 623.1104517 161.14057809 621.13733512 C161.1466988 615.71514198 161.14656216 610.29296424 161.14538372 604.87076843 C161.14517977 599.02250103 161.15069803 593.1742386 161.15544128 587.32597351 C161.16375078 575.86601274 161.16649629 564.40605711 161.16705366 552.94609358 C161.16752885 543.62719152 161.1695731 534.30829102 161.17275429 524.98938942 C161.17365187 522.30546898 161.17454168 519.62154853 161.17542917 516.93762809 C161.17565021 516.27035203 161.17587126 515.60307597 161.17609901 514.91557942 C161.1822534 496.14539105 161.18619958 477.37520327 161.18575573 458.60501385 C161.18574015 457.89735697 161.18572457 457.18970009 161.18570852 456.46059906 C161.18562542 452.87405452 161.18552638 449.28750997 161.18542381 445.70096543 C161.18540387 444.98869232 161.18538392 444.27641921 161.18536337 443.54256207 C161.18532294 442.10216959 161.18528114 440.66177712 161.18523798 439.22138465 C161.18462578 416.83142115 161.19212158 394.44147283 161.20581055 372.05151367 C161.22119228 346.88258047 161.22977544 321.71365724 161.22884732 296.54471904 C161.2287727 293.85734069 161.22872399 291.16996235 161.22869301 288.482584 C161.22868135 287.82091089 161.2286697 287.15923777 161.22865769 286.47751396 C161.22862889 276.51274649 161.23396275 266.54799108 161.24202538 256.58322716 C161.2511468 245.2371214 161.25329228 233.89104047 161.24651595 222.54493263 C161.24325854 216.76050054 161.24316576 210.97611605 161.2518692 205.19168854 C161.25977006 199.8858344 161.25826636 194.58006533 161.24958507 189.27421317 C161.2480579 187.36496232 161.24983635 185.45570501 161.25544515 183.54646178 C161.29610435 168.71138768 161.19879975 153.28926302 156.75 139 C156.53674072 138.27562744 156.32348145 137.55125488 156.10375977 136.80493164 C155.42403628 134.52931435 154.71704263 132.26411644 154 130 C153.75169434 129.20964355 153.50338867 128.41928711 153.24755859 127.60498047 C152.48940019 125.21178663 151.71789354 122.82353083 150.9375 120.4375 C150.58800293 119.36725586 150.58800293 119.36725586 150.23144531 118.27539062 C144.44362078 101.08049445 134.98092695 85.35148611 124 71 C123.29488281 70.07058594 122.58976562 69.14117187 121.86328125 68.18359375 C94.27834652 33.15429586 52.9862222 9.63539118 9 3 C5.98692158 2.37989415 2.99667204 1.69565601 0 1 C0 0.67 0 0.34 0 0 Z " fill="#F7276A" transform="translate(1102,334)"/>
<path d="M0 0 C1.03519272 -0.00029205 2.07038544 -0.00058411 3.13694763 -0.00088501 C6.52945591 0.0004988 9.92173948 0.0160152 13.31420898 0.03173828 C15.67789083 0.03547178 18.04157423 0.03831716 20.40525818 0.04031372 C26.60466844 0.0479236 32.80398393 0.06754932 39.00335693 0.08972168 C45.33808104 0.1102372 51.67282056 0.11932762 58.00756836 0.12939453 C70.4210213 0.15079775 82.83440411 0.18490164 95.24780273 0.22705078 C91.81061035 2.05571617 89.07415205 2.61775664 85.18530273 3.03955078 C71.43085942 4.87347656 57.98090675 8.72723234 45.24780273 14.22705078 C43.49983398 14.97921875 43.49983398 14.97921875 41.71655273 15.74658203 C23.31005175 23.89663935 7.18197608 34.6256844 -7.61157227 48.27392578 C-9.34560985 49.85607686 -11.09919109 51.33651959 -12.93969727 52.78955078 C-16.60898222 55.96959774 -19.65110381 59.50047139 -22.75219727 63.22705078 C-23.3696582 63.95666016 -23.98711914 64.68626953 -24.62329102 65.43798828 C-32.70045634 75.22159699 -39.95449063 85.93281708 -45.75219727 97.22705078 C-46.29360352 98.24798828 -46.83500977 99.26892578 -47.39282227 100.32080078 C-54.52507862 114.08915653 -59.37782462 128.10789568 -62.75219727 143.22705078 C-62.95586914 144.11779297 -63.15954102 145.00853516 -63.36938477 145.92626953 C-66.38230074 159.94791697 -67.04705368 173.64406115 -67.02635193 187.92671204 C-67.03081288 189.88453489 -67.03612971 191.84235595 -67.04222065 193.80017442 C-67.05630846 199.14325145 -67.05806571 204.48627005 -67.05762374 209.82936299 C-67.05928016 215.60675881 -67.07236199 221.38413112 -67.08381653 227.16151428 C-67.10660252 239.77767159 -67.1145803 252.39381202 -67.11964297 265.00998712 C-67.12290758 272.8988083 -67.12943466 280.78762465 -67.13664436 288.6764431 C-67.15620225 310.55095545 -67.17269241 332.42546327 -67.1755209 354.29998493 C-67.17561496 354.9985805 -67.17570902 355.69717606 -67.17580593 356.41694119 C-67.17618438 359.24761661 -67.17654837 362.07829203 -67.17690891 364.90896745 C-67.17718062 367.03916515 -67.1774573 369.16936285 -67.17773438 371.29956055 C-67.1778224 372.00346264 -67.17791042 372.70736473 -67.17800111 373.43259719 C-67.18090382 395.52859053 -67.20298084 417.62449624 -67.23925781 439.72045898 C-67.28008928 464.59068688 -67.30368024 489.46085507 -67.30398041 514.33111829 C-67.30456329 527.48188919 -67.31294565 540.63254725 -67.34197807 553.78328896 C-67.36659333 564.98408189 -67.37370671 576.18472082 -67.35873055 587.38553355 C-67.35160296 593.09009715 -67.35223829 598.79435729 -67.37514114 604.49888611 C-67.45995921 626.93910819 -67.53860068 648.39073359 -61.75219727 670.22705078 C-61.41157331 671.60951155 -61.07319098 672.99252801 -60.7378149 674.37627125 C-60.00929904 677.29580651 -59.19754556 680.16348132 -58.31469727 683.03955078 C-57.86984985 684.52056274 -57.86984985 684.52056274 -57.41601562 686.03149414 C-55.12314297 693.46143067 -52.39286947 700.34221523 -48.75219727 707.22705078 C-48.16954102 708.39751953 -47.58688477 709.56798828 -46.98657227 710.77392578 C-39.45238331 725.69598983 -29.72589484 738.68079841 -18.75219727 751.22705078 C-17.89100294 752.27503754 -17.03161789 753.32451377 -16.17407227 754.37548828 C-14.16930019 756.73594572 -12.23112229 758.73451674 -9.87719727 760.72705078 C-9.26102539 761.25298828 -8.64485352 761.77892578 -8.01000977 762.32080078 C-7.26493164 762.94986328 -6.51985352 763.57892578 -5.75219727 764.22705078 C-5.23149658 764.67918945 -4.7107959 765.13132812 -4.17431641 765.59716797 C7.66270226 775.85756494 20.33627152 784.04925575 34.24780273 791.22705078 C35.19913086 791.71818359 36.15045898 792.20931641 37.13061523 792.71533203 C51.09489645 799.43482158 65.94138784 803.98239497 81.24780273 806.22705078 C81.24780273 806.88705078 81.24780273 807.54705078 81.24780273 808.22705078 C85.86780273 808.55705078 90.48780273 808.88705078 95.24780273 809.22705078 C95.24780273 809.55705078 95.24780273 809.88705078 95.24780273 810.22705078 C81.31401001 810.25038126 67.38022031 810.26796428 53.44641209 810.27886295 C46.97712593 810.28409246 40.50785285 810.29119134 34.03857422 810.30249023 C27.80109973 810.3133167 21.56363786 810.3193271 15.32615471 810.32192802 C12.94059996 810.32378271 10.55504594 810.32740414 8.16949654 810.33278084 C4.84084682 810.33998807 1.51224995 810.34104186 -1.81640625 810.34057617 C-2.81334 810.34417145 -3.81027374 810.34776672 -4.8374176 810.35147095 C-5.73910675 810.35009628 -6.6407959 810.34872162 -7.56980896 810.3473053 C-8.35794196 810.34822709 -9.14607496 810.34914888 -9.95809078 810.35009861 C-11.75219727 810.22705078 -11.75219727 810.22705078 -12.75219727 809.22705078 C-16.2673655 808.56701383 -19.7869451 807.98321238 -23.31860352 807.42041016 C-27.3974398 806.74060411 -30.93382916 805.86439737 -34.75219727 804.22705078 C-36.91415674 803.62650648 -39.08135715 803.04465577 -41.25219727 802.47705078 C-48.49795563 800.43163358 -55.01947096 797.56127682 -61.75219727 794.22705078 C-63.43442383 793.44007813 -63.43442383 793.44007813 -65.15063477 792.63720703 C-82.21095495 784.49042492 -98.83766653 773.09821343 -111.75219727 759.22705078 C-112.57719727 758.42267578 -113.40219727 757.61830078 -114.25219727 756.78955078 C-116.9567982 754.01733483 -119.48581924 751.1312561 -122.00610352 748.19189453 C-123.73587865 746.19648144 -123.73587865 746.19648144 -125.68579102 744.35205078 C-139.81784112 729.81928092 -150.02134408 709.15957996 -156.75219727 690.22705078 C-156.99019043 689.55867187 -157.22818359 688.89029297 -157.47338867 688.20166016 C-160.31771013 680.04123684 -162.40973448 671.9043989 -163.76489258 663.36547852 C-164.31397291 660.00257665 -164.8227792 658.12117787 -166.75219727 655.22705078 C-166.94375829 652.46726605 -167.01654909 649.80914675 -166.99829292 647.04922199 C-167.00060061 646.20157362 -167.0029083 645.35392524 -167.00528592 644.48059055 C-167.0106169 641.61510091 -167.00157622 638.74983204 -166.9927063 635.88435364 C-166.99357773 633.81936375 -166.99532756 631.75437408 -166.99788463 629.68938559 C-167.00237439 623.99534868 -166.99433218 618.30138645 -166.98432851 612.60735905 C-166.97571968 606.47443012 -166.97861234 600.34150566 -166.98013306 594.20857239 C-166.98118354 583.57633638 -166.97495948 572.94412733 -166.96365738 562.31189919 C-166.95183151 551.15840349 -166.94412714 540.00491755 -166.94195175 528.85141563 C-166.94181427 528.15844846 -166.94167679 527.46548129 -166.94153515 526.75151512 C-166.9408585 523.23241954 -166.94025573 519.71332396 -166.9396814 516.19422837 C-166.93547831 491.25537412 -166.9219973 466.31653262 -166.90307617 441.37768555 C-166.88471343 417.14689197 -166.87054321 392.91610188 -166.86206055 368.68530273 C-166.86179749 367.93866936 -166.86153444 367.19203598 -166.86126342 366.42277735 C-166.85862642 358.92491627 -166.85607479 351.42705517 -166.8535857 343.92919404 C-166.848513 328.65459333 -166.84287049 313.37999284 -166.83688354 298.10539246 C-166.83660897 297.40305986 -166.83633439 296.70072727 -166.83605148 295.97711188 C-166.81764388 249.06041943 -166.78591121 202.14373447 -166.75219727 155.22705078 C-166.09219727 155.22705078 -165.43219727 155.22705078 -164.75219727 155.22705078 C-164.64262695 154.36724609 -164.53305664 153.50744141 -164.42016602 152.62158203 C-162.96717928 141.78915247 -161.29697258 131.136174 -156.95532227 121.04345703 C-156.04175204 118.90487219 -155.18752521 116.74082125 -154.36157227 114.56689453 C-149.09536267 100.83613182 -142.36203926 86.47218101 -132.75219727 75.22705078 C-131.88401367 74.11136719 -131.88401367 74.11136719 -130.99829102 72.97314453 C-125.58383745 66.06182259 -119.77134446 59.60911714 -113.75219727 53.22705078 C-113.06125977 52.49357422 -112.37032227 51.76009766 -111.65844727 51.00439453 C-100.44527726 39.44655741 -87.03035188 29.65982431 -72.75219727 22.22705078 C-72.09219727 22.22705078 -71.43219727 22.22705078 -70.75219727 22.22705078 C-70.75219727 21.56705078 -70.75219727 20.90705078 -70.75219727 20.22705078 C-67.89818424 19.03787869 -65.04410855 17.84886055 -62.18969727 16.66064453 C-59.98011717 15.7391492 -57.77168312 14.81489839 -55.56469727 13.88720703 C-54.55407227 13.46310547 -53.54344727 13.03900391 -52.50219727 12.60205078 C-51.58954102 12.21791016 -50.67688477 11.83376953 -49.73657227 11.43798828 C-43.01102098 8.70903423 -36.35039887 6.46464554 -29.31469727 4.66455078 C-28.51999023 4.45636719 -27.7252832 4.24818359 -26.90649414 4.03369141 C-24.52468527 3.41546762 -22.14399711 2.80569419 -19.75219727 2.22705078 C-19.14220886 2.06473559 -18.53222046 1.90242041 -17.90374756 1.73518658 C-11.8702597 0.23320325 -6.19880676 -0.04648714 0 0 Z " fill="#00DAFE" transform="translate(273.752197265625,333.77294921875)"/>
<path d="M0 0 C20.79 0 41.58 0 63 0 C63 52.14 63 104.28 63 158 C115.14 158 167.28 158 221 158 C221 179.12 221 200.24 221 222 C168.86 222 116.72 222 63 222 C63 273.48 63 324.96 63 378 C42.21 378 21.42 378 0 378 C0 326.52 0 275.04 0 222 C-51.81 222 -103.62 222 -157 222 C-157 201.21 -157 180.42 -157 159 C-105.19 159 -53.38 159 0 159 C0 106.53 0 54.06 0 0 Z " fill="#0D0D0D" transform="translate(697,550)"/>
<path d="M0 0 C19.47 0 38.94 0 59 0 C59 0.33 59 0.66 59 1 C40.19 1 21.38 1 2 1 C2 52.81 2 104.62 2 158 C1.34 158 0.68 158 0 158 C0 105.86 0 53.72 0 0 Z M-158 158 C-105.86 158 -53.72 158 0 158 C0 158.66 0 159.32 0 160 C-51.48 160 -102.96 160 -156 160 C-155.67 179.14 -155.34 198.28 -155 218 C-104.18 218.33 -53.36 218.66 -1 219 C-1 219.33 -1 219.66 -1 220 C-52.81 220 -104.62 220 -158 220 C-158 199.54 -158 179.08 -158 158 Z " fill="#040404" transform="translate(698,551)"/>
<path d="M0 0 C0 20.46 0 40.92 0 62 C-51.48 62 -102.96 62 -156 62 C-156 61.67 -156 61.34 -156 61 C-105.18 61 -54.36 61 -2 61 C-2 41.53 -2 22.06 -2 2 C-52.49 2 -102.98 2 -155 2 C-155 1.67 -155 1.34 -155 1 C-135.08581913 0.86953693 -115.17163777 0.7391482 -95.25745583 0.60884857 C-86.01148073 0.54834989 -76.76550581 0.48782665 -67.51953125 0.42724609 C-59.4630942 0.37445957 -51.40665684 0.32171862 -43.35021913 0.26903296 C-39.0822913 0.24112092 -34.81436363 0.21318568 -30.54643631 0.18519592 C-26.53283665 0.1588748 -22.51923659 0.13261441 -18.50563622 0.10640144 C-17.02937365 0.09674906 -15.55311124 0.08707412 -14.07684898 0.07737541 C-12.06755995 0.06417815 -10.05827035 0.05106849 -8.04898071 0.03796387 C-6.92254969 0.03058952 -5.79611866 0.02321518 -4.63555336 0.01561737 C-3.09038727 0.00646125 -1.54519322 0 0 0 Z " fill="#000000" transform="translate(917,709)"/>
<path d="M0 0 C-3.06156654 1.77669223 -5.24036215 2.24050818 -8.765625 2.1953125 C-9.65507813 2.18886719 -10.54453125 2.18242188 -11.4609375 2.17578125 C-12.38132812 2.15902344 -13.30171875 2.14226562 -14.25 2.125 C-15.18585938 2.11597656 -16.12171875 2.10695313 -17.0859375 2.09765625 C-19.39088657 2.07413636 -21.6953116 2.04126853 -24 2 C-24 1.67 -24 1.34 -24 1 C-15.83488792 -0.30168453 -8.24087846 -1.44576815 0 0 Z " fill="#F73875" transform="translate(1121,1142)"/>
<path d="M0 0 C2.62527189 -0.05382106 5.24944713 -0.09358313 7.875 -0.125 C8.62136719 -0.14175781 9.36773438 -0.15851563 10.13671875 -0.17578125 C12.09194461 -0.1933959 14.04742021 -0.10320189 16 0 C18 2 18 2 18 4 C11.85845775 3.41509121 5.99320151 2.45933748 0 1 C0 0.67 0 0.34 0 0 Z " fill="#F73674" transform="translate(1102,334)"/>
<path d="M0 0 C0.66 0.33 1.32 0.66 2 1 C-1.64751781 6.08441876 -3.85169289 7.79444959 -10 9 C-6.83047153 5.73991357 -3.60062011 2.77762123 0 0 Z " fill="#F73A77" transform="translate(1196,1103)"/>
<path d="M0 0 C0.33 0 0.66 0 1 0 C1.125 6.75 1.125 6.75 0 9 C-0.66 9 -1.32 9 -2 9 C-1.125 1.125 -1.125 1.125 0 0 Z " fill="#F83F7A" transform="translate(1262,992)"/>
</svg>
